HIERARCHY
ROOT Hips
{
  OFFSET 0.520521 78.287 -1.6682
  CHANNELS 6 Xposition Yposition Zposition Zrotation Xrotation Yrotation
  JOINT Spine
  {
    OFFSET 0.0009 9.9235 -1.2273
    CHANNELS 3 Zrotation Xrotation Yrotation
    JOINT Spine1
    {
      OFFSET 0 11.732 0
      CHANNELS 3 Zrotation Xrotation Yrotation
      JOINT Spine2
      {
        OFFSET 0 13.4588 0
        CHANNELS 3 Zrotation Xrotation Yrotation
        JOINT Neck
        {
          OFFSET 0 15.0278 0.8779
          CHANNELS 3 Zrotation Xrotation Yrotation
          JOINT Head
          {
            OFFSET 0 10.3218 3.1424
            CHANNELS 3 Zrotation Xrotation Yrotation
            End Site
            {
              OFFSET 0.0002 18.4747 6.6364
            }
          }
        }
        JOINT LeftShoulder
        {
          OFFSET 6.1058 9.1063 0.7571
          CHANNELS 3 Zrotation Xrotation Yrotation
          JOINT LeftArm
          {
            OFFSET 0 12.9223 0
            CHANNELS 3 Zrotation Xrotation Yrotation
            JOINT LeftForeArm
            {
              OFFSET 0 27.4047 0
              CHANNELS 3 Zrotation Xrotation Yrotation
              JOINT LeftHand
              {
                OFFSET 0 27.6145 0
                CHANNELS 3 Zrotation Xrotation Yrotation
                JOINT LeftHandThumb1
                {
                  OFFSET -3.003 3.7888 2.1671
                  CHANNELS 3 Zrotation Xrotation Yrotation
                  JOINT LeftHandThumb2
                  {
                    OFFSET 0 4.745 0
                    CHANNELS 3 Zrotation Xrotation Yrotation
                    JOINT LeftHandThumb3
                    {
                      OFFSET 0 4.3821 0
                      CHANNELS 3 Zrotation Xrotation Yrotation
                      End Site
                      {
                        OFFSET 0 3.4591 0
                      }
                    }
                  }
                }
                JOINT LeftHandIndex1
                {
                  OFFSET -2.822 12.2666 0.2318
                  CHANNELS 3 Zrotation Xrotation Yrotation
                  JOINT LeftHandIndex2
                  {
                    OFFSET 0 3.892 0
                    CHANNELS 3 Zrotation Xrotation Yrotation
                    JOINT LeftHandIndex3
                    {
                      OFFSET 0 3.4152 0
                      CHANNELS 3 Zrotation Xrotation Yrotation
                      End Site
                      {
                        OFFSET 0 3.078 0
                      }
                    }
                  }
                }
                JOINT LeftHandMiddle1
                {
                  OFFSET 0 12.7755 0
                  CHANNELS 3 Zrotation Xrotation Yrotation
                  JOINT LeftHandMiddle2
                  {
                    OFFSET 0 3.614 0
                    CHANNELS 3 Zrotation Xrotation Yrotation
                    JOINT LeftHandMiddle3
                    {
                      OFFSET 0 3.4598 0
                      CHANNELS 3 Zrotation Xrotation Yrotation
                      End Site
                      {
                        OFFSET 0 3.6802 0
                      }
                    }
                  }
                }
                JOINT LeftHandRing1
                {
                  OFFSET 2.2166 12.147 -0.01
                  CHANNELS 3 Zrotation Xrotation Yrotation
                  JOINT LeftHandRing2
                  {
                    OFFSET 0 3.6012 0
                    CHANNELS 3 Zrotation Xrotation Yrotation
                    JOINT LeftHandRing3
                    {
                      OFFSET 0 3.3073 0
                      CHANNELS 3 Zrotation Xrotation Yrotation
                      End Site
                      {
                        OFFSET 0 3.6601 0
                      }
                    }
                  }
                }
                JOINT LeftHandPinky1
                {
                  OFFSET 4.7258 10.9082 0.2261
                  CHANNELS 3 Zrotation Xrotation Yrotation
                  JOINT LeftHandPinky2
                  {
                    OFFSET 0 4.1367 0
                    CHANNELS 3 Zrotation Xrotation Yrotation
                    JOINT LeftHandPinky3
                    {
                      OFFSET 0 2.5948 0
                      CHANNELS 3 Zrotation Xrotation Yrotation
                      End Site
                      {
                        OFFSET 0 2.9239 0
                      }
                    }
                  }
                }
              }
            }
          }
        }
        JOINT RightShoulder
        {
          OFFSET -6.1057 9.1064 0.7571
          CHANNELS 3 Zrotation Xrotation Yrotation
          JOINT RightArm
          {
            OFFSET 0 12.9223 0
            CHANNELS 3 Zrotation Xrotation Yrotation
            JOINT RightForeArm
            {
              OFFSET 0 27.4047 0
              CHANNELS 3 Zrotation Xrotation Yrotation
              JOINT RightHand
              {
                OFFSET 0 27.6145 0
                CHANNELS 3 Zrotation Xrotation Yrotation
                JOINT RightHandThumb1
                {
                  OFFSET 3.003 3.7888 2.1671
                  CHANNELS 3 Zrotation Xrotation Yrotation
                  JOINT RightHandThumb2
                  {
                    OFFSET 0 4.745 0
                    CHANNELS 3 Zrotation Xrotation Yrotation
                    JOINT RightHandThumb3
                    {
                      OFFSET 0 4.3821 0
                      CHANNELS 3 Zrotation Xrotation Yrotation
                      End Site
                      {
                        OFFSET 0 3.4591 0
                      }
                    }
                  }
                }
                JOINT RightHandIndex1
                {
                  OFFSET 2.822 12.2666 0.2318
                  CHANNELS 3 Zrotation Xrotation Yrotation
                  JOINT RightHandIndex2
                  {
                    OFFSET 0 3.892 0
                    CHANNELS 3 Zrotation Xrotation Yrotation
                    JOINT RightHandIndex3
                    {
                      OFFSET 0 3.4152 0
                      CHANNELS 3 Zrotation Xrotation Yrotation
                      End Site
                      {
                        OFFSET 0 3.078 0
                      }
                    }
                  }
                }
                JOINT RightHandMiddle1
                {
                  OFFSET 0 12.7755 0
                  CHANNELS 3 Zrotation Xrotation Yrotation
                  JOINT RightHandMiddle2
                  {
                    OFFSET 0 3.614 0
                    CHANNELS 3 Zrotation Xrotation Yrotation
                    JOINT RightHandMiddle3
                    {
                      OFFSET 0 3.4598 0
                      CHANNELS 3 Zrotation Xrotation Yrotation
                      End Site
                      {
                        OFFSET 0 3.6802 0
                      }
                    }
                  }
                }
                JOINT RightHandRing1
                {
                  OFFSET -2.2166 12.147 -0.01
                  CHANNELS 3 Zrotation Xrotation Yrotation
                  JOINT RightHandRing2
                  {
                    OFFSET 0 3.6012 0
                    CHANNELS 3 Zrotation Xrotation Yrotation
                    JOINT RightHandRing3
                    {
                      OFFSET 0 3.3073 0
                      CHANNELS 3 Zrotation Xrotation Yrotation
                      End Site
                      {
                        OFFSET 0 3.6601 0
                      }
                    }
                  }
                }
                JOINT RightHandPinky1
                {
                  OFFSET -4.7258 10.9082 0.2261
                  CHANNELS 3 Zrotation Xrotation Yrotation
                  JOINT RightHandPinky2
                  {
                    OFFSET 0 4.1367 0
                    CHANNELS 3 Zrotation Xrotation Yrotation
                    JOINT RightHandPinky3
                    {
                      OFFSET 0 2.5948 0
                      CHANNELS 3 Zrotation Xrotation Yrotation
                      End Site
                      {
                        OFFSET 0 2.9239 0
                      }
                    }
                  }
                }
              }
            }
          }
        }
      }
    }
  }
  JOINT LeftUpLeg
  {
    OFFSET 9.1239 -6.6572 -0.0554
    CHANNELS 3 Zrotation Xrotation Yrotation
    JOINT LeftLeg
    {
      OFFSET 0 40.5994 0
      CHANNELS 3 Zrotation Xrotation Yrotation
      JOINT LeftFoot
      {
        OFFSET 0 42.099 0
        CHANNELS 3 Zrotation Xrotation Yrotation
        JOINT LeftToeBase
        {
          OFFSET 0 15.7216 0
          CHANNELS 3 Zrotation Xrotation Yrotation
          End Site
          {
            OFFSET 0 10 0
          }
        }
      }
    }
  }
  JOINT RightUpLeg
  {
    OFFSET -9.125 -6.6556 -0.0554
    CHANNELS 3 Zrotation Xrotation Yrotation
    JOINT RightLeg
    {
      OFFSET 0 40.5994 0
      CHANNELS 3 Zrotation Xrotation Yrotation
      JOINT RightFoot
      {
        OFFSET 0 42.099 0
        CHANNELS 3 Zrotation Xrotation Yrotation
        JOINT RightToeBase
        {
          OFFSET 0 15.7216 0
          CHANNELS 3 Zrotation Xrotation Yrotation
          End Site
          {
            OFFSET 0 10 0
          }
        }
      }
    }
  }
}
MOTION
Frames:	4
Frame Time:	0.0333333
0.520521 78.287 -1.6682 12.0281 27.1004 -2.41791 10.8324 24.5937 -6.15258 -3.94666 3.59264 0.492898 -2.8382 9.7545 0.316715 -1.11812 -7.97101 -0.846877 -5.37579 -23.2735 -5.31821 -87.9451 -3.47292 90.9613 2.78718 31.929 -25.1699 42.1101 -9.5963e-07 -4.45253e-06 -4.68478 -22.5626 -20.633 25.7869 17.3519 -11.9306 -5.26447 -0.34374 0.200948 -0.413126 -2.69522 0.0130737 10.6206 -17.273 2.92957 -9.7995 54.6617 5.07361 -3.36821 25.959 0.776544 7.79739 -6.20495 0.855268 -4.99428 35.8059 1.61429 -2.33602 18.6624 0.383883 5.18595 7.02874 -0.652218 -1.95024 15.7483 0.269736 -0.781625 6.44922 0.0440327 -3.92099 17.4661 0.860056 4.05683 0.48975 -0.0180592 0.384887 -3.18601 0.0107037 86.5334 -12.7181 -90.3889 -30.0636 4.70412 37.4783 -33.3013 3.8471e-06 4.0324e-06 -14.1702 -10.7124 -4.78151 -37.7075 13.2149 18.0824 29.2277 -6.30666 2.49063 0.802273 -2.493 0.00609028 -7.46534 -10.4337 -1.28014 9.06263 52.2711 -4.45372 2.65572 20.8171 -0.48789 -5.36789 0.239285 -0.00797972 4.85355 34.7712 -1.52044 1.86609 14.9601 -0.243304 -3.27514 13.1743 0.908448 1.9931 15.9279 -0.278848 0.560549 4.58978 0.0979575 0.62342 24.1733 0.352064 -6.33124e-07 -1.35712e-05 -7.82248e-07 -0.43504 -3.56509 -0.0135455 -178.301 33.9253 -2.70749 20.2544 -62.8944 3.3309 96.297 70.629 -110.987 0.92632 54.4519 -4.45862 88.136 61.2177 86.1875 18.1381 -73.4877 25.9218 -24.0969 72.5796 28.7622 0.70483 31.4245 3.6087 
-2.91465 78.3352 -3.45018 11.242 27.2206 -0.753572 12.3797 23.7978 -7.08298 -3.79675 0.384024 0.337975 -2.94961 9.06644 0.291377 -1.16622 -8.08886 -0.5328 -5.59461 -23.5125 -3.70584 -86.6492 -3.59043 90.8339 4.88118 25.8962 -23.8027 39.0985 -6.4261e-06 -1.01634e-05 -9.09601 -20.4635 -25.3579 30.312 16.9568 -14.0496 -12.4454 -1.86266 -0.484077 -2.33807 -2.96897 -0.0692563 10.1532 -17.6537 2.83007 -7.11989 45.7648 3.00813 -2.7018 21.3357 0.509008 7.22279 -8.25525 1.0068 -3.95735 29.7642 1.05201 -1.8874 15.2651 0.252941 4.35584 2.86675 -0.204476 -1.58626 12.9191 0.179596 -0.61491 5.08191 0.027295 -4.43171 11.4065 0.749556 4.05682 0.489746 -0.0180645 0.353913 -2.93 0.00904938 85.0371 -12.6539 -90.3581 -27.481 2.18584 35.6935 -28.6943 3.65107e-06 8.01865e-06 -11.2616 -10.5464 -2.12737 -36.7161 11.1242 17.1166 27.6668 -5.9693 2.20086 0.0733736 -2.42248 -0.0574328 -6.08171 -10.1332 -0.98725 6.50809 42.9246 -2.56095 2.01906 16.1246 -0.286016 -3.4195 -1.69935 -0.109367 3.86513 28.9482 -0.99806 1.42143 11.5055 -0.68738 -1.19735 8.52967 0.249693 1.75619 14.1157 -0.217445 0.388215 3.18225 -0.265318 2.09448 17.1561 -0.307146 0.166543 1.36639 -0.00198058 -0.426251 -3.49327 -0.0130081 -179.903 20.3226 -6.02379 16.1826 -54.3672 -3.75672 75.996 78.8465 -88.1326 1.63453 60.4296 -4.97116 86.7557 62.9333 89.2173 21.4038 -74.4614 28.6637 -33.9939 69.5813 37.3193 0.562803 34.0447 3.64832 
-6.0666 78.6131 -5.36547 10.5574 27.6812 0.77805 12.7593 22.1381 -7.82445 -3.44995 -1.30143 0.0995618 -2.81426 8.40389 0.12291 -1.22576 -8.20752 -0.200868 -5.78923 -23.7476 -2.0091 -85.3589 -3.89374 90.7019 8.87958 20.0088 -24.9654 37.1861 -2.5884e-06 7.28363e-07 -11.4758 -17.5359 -25.566 35.0681 16.2411 -16.1873 -20.0164 -3.62786 -1.36964 -4.29563 -3.26381 -0.153552 9.70363 -17.9926 2.72587 -5.09241 36.3353 1.67206 -2.04383 16.4637 0.295695 6.64169 -10.3783 1.11405 -2.99109 23.3831 0.619085 -1.42933 11.6784 0.146173 3.51038 -1.51108 0.101562 -1.20883 9.91591 0.104862 -0.438644 3.62974 0.0138974 -5.00346 5.03659 0.433897 4.05683 0.489737 -0.0180692 0.322666 -2.67168 0.00752648 84.3949 -12.7338 -90.335 -23.7679 2.36003 33.6475 -28.6898 6.83384e-06 -2.74095e-07 -9.07692 -11.1512 1.35145 -35.511 8.7682 16.077 25.545 -5.52305 1.82034 -0.948039 -2.31994 -0.143176 -4.53894 -9.81743 -0.683953 4.50728 32.8159 -1.32785 1.35813 11.0059 -0.130836 -1.17254 -3.73858 -0.0624408 2.90523 22.5823 -0.580163 0.932119 7.60342 -0.946135 1.17337 3.64882 -0.0614383 1.47718 11.9438 -0.154531 0.163441 1.34093 -0.480751 3.7805 9.82192 -0.550006 0.365455 2.99597 -0.00955968 -0.46941 -3.84586 -0.0157725 178.995 10.6753 -8.91408 13.1524 -45.4271 -3.2936 26.0508 76.1521 -32.3045 6.14579 63.3913 -17.947 84.7979 64.5006 92.476 23.1629 -74.2169 29.2881 -38.7648 65.3443 40.8707 0.385894 37.1406 3.70736 
-8.83712 79.1742 -7.43017 10.0172 28.5049 2.14313 11.979 19.2978 -8.34021 -2.59897 -1.14835 -0.221985 -2.16223 8.09188 -0.208989 -1.29431 -8.31783 0.144116 -5.94945 -23.9637 -0.235247 -84.0129 -4.20693 90.5627 14.1135 14.2924 -28.5311 37.5348 4.73636e-06 3.1427e-06 -10.5115 -16.7181 -22.0686 39.8121 15.2029 -18.1917 -27.6785 -5.5543 -2.49301 -6.25866 -3.57613 -0.240619 9.25325 -18.286 2.61164 -3.47653 26.6788 0.824557 -1.40703 11.501 0.141693 6.05673 -12.5055 1.16883 -2.09385 16.8439 0.310032 -0.974366 8.02078 0.0683084 2.67066 -5.95344 0.243657 -0.823607 6.79251 0.0488782 -0.25895 2.14476 0.00484749 -5.62841 -1.41923 -0.105644 4.05683 0.489758 -0.0180689 0.291783 -2.4164 0.00615763 84.5984 -13.1396 -90.3096 -17.837 6.05961 31.0972 -32.8279 -1.3988e-05 4.9195e-06 -4.51793 -10.867 6.2435 -34.3249 6.31206 15.1155 23.2902 -5.05656 1.43019 -2.03928 -2.21251 -0.235732 -2.9592 -9.48975 -0.396076 2.89914 22.5396 -0.577822 0.706697 5.77903 -0.0356632 1.15909 -5.79376 0.148636 2.01256 16.0755 -0.284215 0.437461 3.58484 -0.908252 3.61413 -1.27872 0.0671184 1.19051 9.67518 -0.100752 -0.0752689 -0.617762 -0.473239 5.51657 2.43599 -0.257792 0.556312 4.55526 -0.0221239 -0.527572 -4.32082 -0.0199039 178.15 6.47042 -10.4898 12.4493 -43.8503 -1.68804 14.5798 74.7756 -20.1015 5.36919 44.5902 -22.8143 83.3708 65.9875 94.8426 22.4411 -72.3031 27.615 -41.2085 61.4005 41.9803 0.303772 38.513 3.73825 
